<?xml version="1.0" standalone="no"?>
<!DOCTYPE svg PUBLIC "-//W3C//DTD SVG 20010904//EN"
 "http://www.w3.org/TR/2001/REC-SVG-20010904/DTD/svg10.dtd">
<svg version="1.0" xmlns="http://www.w3.org/2000/svg"
 width="270.000000pt" height="270.000000pt" viewBox="0 0 270.000000 270.000000"
 preserveAspectRatio="xMidYMid meet">
<metadata>
Created by potrace 1.11, written by Peter Selinger 2001-2013
</metadata>
<g transform="translate(0.000000,270.000000) scale(0.100000,-0.100000)"
fill="#000000" stroke="none">
<path d="M788 2586 c-57 -13 -116 -64 -146 -126 -41 -85 -52 -163 -48 -330 2
-85 6 -166 10 -180 3 -14 8 -45 11 -69 3 -24 7 -47 10 -50 2 -4 -13 -13 -33
-20 -204 -73 -380 -199 -448 -323 -41 -77 -44 -171 -5 -250 65 -132 215 -242
459 -338 23 -9 31 -17 27 -28 -3 -9 -8 -34 -11 -56 -2 -23 -8 -66 -13 -96 -10
-59 -7 -307 3 -353 28 -121 104 -225 177 -241 137 -31 303 46 504 236 l60 56
51 -46 c99 -91 120 -108 179 -148 254 -171 435 -131 501 111 28 104 25 383 -5
517 -8 33 -6 38 13 44 30 9 200 87 206 95 3 3 27 19 55 35 70 41 167 140 200
204 65 128 26 269 -105 387 -68 62 -233 155 -343 194 -40 14 -39 9 -20 104 21
107 23 353 3 435 -26 111 -78 193 -141 226 -62 31 -166 21 -267 -26 -80 -38
-164 -100 -280 -208 -25 -23 -49 -41 -53 -40 -4 2 -39 32 -77 68 -120 110
-217 173 -317 204 -71 22 -103 24 -157 12z m137 -135 c60 -20 195 -112 270
-183 l67 -63 -62 -80 c-34 -44 -80 -107 -103 -140 -22 -33 -41 -61 -42 -63 -2
-2 -18 -5 -36 -7 -77 -10 -119 -18 -209 -39 -36 -9 -68 -16 -71 -16 -4 0 -10
21 -13 48 -4 26 -10 56 -12 67 -13 51 -13 283 0 335 34 146 87 181 211 141z
m995 -14 c17 -16 28 -32 26 -35 -3 -2 0 -14 6 -26 37 -67 43 -291 12 -451 -3
-16 -7 -35 -8 -42 -4 -21 -11 -23 -47 -12 -19 5 -47 12 -64 14 -16 3 -43 8
-60 11 -16 4 -40 8 -52 10 -88 10 -103 16 -124 51 -12 19 -57 82 -100 139 -44
58 -79 108 -79 111 0 11 91 95 158 146 153 115 270 145 332 84z m-513 -404
c33 -43 62 -82 65 -88 4 -6 -41 -10 -128 -10 -74 0 -134 2 -134 4 0 11 127
171 136 171 1 0 28 -35 61 -77z m172 -252 c30 -39 148 -261 184 -346 l34 -80
-25 -55 c-98 -219 -187 -377 -215 -386 -25 -8 -315 -12 -390 -6 -45 4 -50 7
-78 51 -58 91 -193 374 -191 400 2 29 143 319 191 393 36 56 27 54 289 53 181
0 184 -1 201 -24z m-678 -131 c-36 -71 -69 -126 -72 -122 -6 7 -60 175 -63
197 -1 9 66 30 134 41 19 3 37 8 39 10 2 2 9 4 16 4 6 0 -18 -58 -54 -130z
m914 110 c33 -6 67 -14 75 -17 8 -3 18 -5 23 -5 13 3 6 -32 -26 -129 l-32 -96
-68 134 c-50 100 -63 133 -50 129 10 -2 45 -10 78 -16z m-1150 -103 c9 -37 69
-220 89 -268 12 -29 11 -38 -10 -90 -12 -33 -20 -59 -18 -59 2 0 -2 -12 -9
-27 -8 -16 -25 -67 -38 -114 l-23 -87 -37 13 c-116 41 -236 112 -315 187 -124
117 -104 218 66 345 83 61 263 149 282 137 3 -2 10 -19 13 -37z m1491 -7 c172
-79 295 -190 310 -278 5 -28 -20 -90 -53 -130 -32 -39 -133 -122 -149 -122 -3
0 -18 -8 -32 -18 -15 -10 -64 -35 -110 -55 l-83 -37 -8 23 c-5 12 -16 49 -26
82 -9 33 -21 69 -25 80 -5 11 -19 52 -33 91 l-26 71 33 89 c17 49 42 126 55
172 28 95 17 93 147 32z m-252 -599 c10 -35 14 -67 9 -71 -4 -4 -47 -17 -95
-28 -102 -23 -103 -21 -55 65 17 32 45 86 61 121 l30 62 16 -42 c9 -24 24 -72
34 -107z m-1006 16 c34 -67 63 -125 62 -129 0 -3 -15 -2 -32 2 -18 5 -61 14
-95 21 -35 6 -63 17 -63 23 -1 17 54 206 60 206 3 0 33 -55 68 -123z m-16
-246 c59 -11 121 -22 138 -23 27 -2 40 -14 88 -83 31 -44 60 -84 64 -90 5 -5
27 -34 50 -64 l41 -53 -59 -57 c-181 -174 -354 -248 -428 -183 -23 20 -52 84
-62 132 -12 64 -11 239 2 327 19 129 21 135 42 124 10 -5 66 -19 124 -30z
m1084 -36 c3 -27 8 -59 11 -70 9 -39 9 -249 1 -299 -13 -72 -42 -131 -73 -152
-76 -50 -239 21 -409 178 l-70 65 30 39 c16 21 31 41 34 44 18 18 90 121 90
130 0 5 5 10 10 10 6 0 10 5 10 10 0 17 39 55 58 57 36 3 95 13 111 17 9 3 32
8 51 10 19 3 55 11 80 19 53 16 56 13 66 -58z m-493 -19 c-4 -6 -11 -15 -15
-21 -5 -5 -31 -40 -59 -77 -28 -38 -52 -68 -53 -68 -4 0 -103 125 -120 151
l-16 25 135 1 c94 0 132 -3 128 -11z"/>
<path d="M1280 1604 c-172 -52 -221 -315 -83 -446 93 -88 240 -75 320 30 147
193 -17 483 -237 416z"/>
</g>
</svg>
